<svg xmlns="http://www.w3.org/2000/svg" viewBox="0 0 28.85 28.85"><defs><style>.cls-1{fill:#e3d800;}.cls-2{fill:#573e89;}</style></defs><title>competencia</title><g id="Capa_2" data-name="Capa 2"><g id="Layer_1" data-name="Layer 1"><circle class="cls-1" cx="14.42" cy="14.42" r="13.18"/><path class="cls-2" d="M14.42,28.85A14.43,14.43,0,1,1,28.85,14.42,14.44,14.44,0,0,1,14.42,28.85Zm0-26.37A11.94,11.94,0,1,0,26.36,14.42,12,12,0,0,0,14.42,2.48Z"/><path class="cls-2" d="M5.42,19.26c-.08.15,0,.33,0,.48s0,.33,0,.5a.16.16,0,0,0,0,.12c.12.13.3-.23.34-.31a.93.93,0,0,1,.64-.52.67.67,0,0,0,.41-.26A.57.57,0,0,1,7,19.12a7.83,7.83,0,0,1,1.67-.75A10.64,10.64,0,0,0,10,17.85l.2-.05a.73.73,0,0,0,.69-.46,2,2,0,0,1,.18-.36c.14-.24.29-.47.44-.71l.07-.1.69.65a.2.2,0,0,1,0,.11c0,.17,0,.35,0,.53,0,.53,0,1.06.05,1.58a5.69,5.69,0,0,0,.2.89,2.67,2.67,0,0,1,.14,1.26.5.5,0,0,0,.23.63h.52a.53.53,0,0,0,.1-.06.44.44,0,0,1,.44-.1.67.67,0,0,0,.62-.16c.2-.17.17-.5-.13-.51a.94.94,0,0,1-.84-.34.09.09,0,0,0-.05,0c-.15,0-.17-.12-.19-.22l-.06-.31a11.52,11.52,0,0,1-.07-2.69,1,1,0,0,1,.09-.28.71.71,0,0,0,.08-.55,2.81,2.81,0,0,0-.26-.52c-.3-.52-.59-1-.9-1.55a.28.28,0,0,1,0-.22,8.46,8.46,0,0,0,.31-1.81,11.79,11.79,0,0,1,.13-1.32c0-.28.15-.56.23-.84h.05l.1.21.39.79c.12.22.3.24.46,0A.55.55,0,0,0,14,11l.06-1.41c0-.1,0-.24,0-.31a1.63,1.63,0,0,0-.38-.3.64.64,0,0,0-.24-.05,1,1,0,0,0-.92-1,.44.44,0,0,1-.2-.11c-.08-.07-.06-.17,0-.27s.1-.07.17-.07h.18a.14.14,0,0,0,.15-.13c0-.12,0-.23,0-.34s0-.16.11-.18l.05,0-.06-.12a.54.54,0,0,1-.11-.41.52.52,0,0,0-.12-.5.08.08,0,0,1,0-.07c0-.11,0-.31-.13-.36a2.3,2.3,0,0,0-.83,0,1,1,0,0,0-.38,0s-.29.21-.24.24c-.33-.21-.68-.29-1,.05a.94.94,0,0,0-.14.78,1.84,1.84,0,0,0,.3.69.75.75,0,0,1,0,1l0,0a1.64,1.64,0,0,0,1-1.1c.14.08.27.16.25.34a.42.42,0,0,1-.26.4c-.36.18-.72.38-1.08.58a.87.87,0,0,0-.22.17L9,9.29a7.6,7.6,0,0,0-.69.7c-.26.34-.24.51.13.74a10.57,10.57,0,0,0,1.79.87l.11.05a3.55,3.55,0,0,0-.42,2.81h.28c.12,0,.16,0,.13.15-.06.31-.1.62-.16.92a4.22,4.22,0,0,1-.39,1.15.32.32,0,0,1-.27.18,2.45,2.45,0,0,0-1.45.72L8,17.65l-.89.57a.17.17,0,0,1-.18,0L6.31,18A.24.24,0,0,0,6,18a.93.93,0,0,0-.27.65.45.45,0,0,1-.08.23A4,4,0,0,0,5.42,19.26ZM10.89,5.87l-.05.6A.43.43,0,0,1,10.89,5.87Zm-.5,5.27a3,3,0,0,1-1.39-1l1-.68A4.38,4.38,0,0,1,10.39,11.14Z"/><path class="cls-2" d="M21.5,21a3.68,3.68,0,0,0-.47-.15A1.33,1.33,0,0,1,20,19.58c0-.49-.09-1-.12-1.48a6.35,6.35,0,0,0-1.07-3.33c-.24-.36-.49-.7-.74-1-.12-.17-.26-.34-.21-.55.1-.4.22-.8.34-1.2a.36.36,0,0,1,.38-.26,3.05,3.05,0,0,1,.52,0,2.58,2.58,0,0,1,.89.34A.66.66,0,0,0,21,11.91a.41.41,0,0,0-.31-.66,4.14,4.14,0,0,1-1.4-.36.57.57,0,0,1-.38-.66c0-.24.06-.48.1-.72a1.52,1.52,0,0,0-.18-1.16c-.25-.36-.23-.41.16-.47h.18a.13.13,0,0,0,.15-.14V7.66l0-.09h0s0,0,0-.08a.67.67,0,0,0,.05-.19c0-.1,0-.17.12-.19l.06,0a.54.54,0,0,0-.07-.13.57.57,0,0,1-.11-.44A.55.55,0,0,0,19.31,6s0,0,0,0h0l-.09-.13A1,1,0,0,0,18,5.54a.79.79,0,0,0-.55,1c0,.19.09.38.14.57.13.54,0,.76-.56.87a1.49,1.49,0,0,0-.56.14q-.78.44-1.53.93a.79.79,0,0,0-.26,1,3.47,3.47,0,0,0,.34.59c.22.33.46.65.67,1a.68.68,0,0,1,0,.85,1.85,1.85,0,0,0-.38.87,4.08,4.08,0,0,1-.49,1.34c-.2.36-.39.73-.58,1.1s-.28.45-.7.41a2.37,2.37,0,0,0-1.09.15l-1.11.43a1.69,1.69,0,0,1-1.49,0c-.29-.15-.48-.07-.63.24a7.17,7.17,0,0,0-.3.69c-.14.35-.29.71-.41,1.07a.47.47,0,0,0,.05.41c.13.13.31,0,.42-.09.33-.29.65-.59,1-.89a.45.45,0,0,1,.41-.19.45.45,0,0,0,.41-.13,1.54,1.54,0,0,1,1-.4l2.16-.15a1.67,1.67,0,0,0,1.25-.55,12.85,12.85,0,0,0,1.43-1.6c.08-.12.15-.14.27,0s.38.34.57.51.52.47.76.71a.92.92,0,0,1,.3.69A5.05,5.05,0,0,0,19,19.65a1.33,1.33,0,0,1,.19.89v.35c0,.52.27.76.8.74a11,11,0,0,0,1.27-.14.71.71,0,0,0,.3-.15C21.72,21.19,21.7,21.06,21.5,21ZM16.25,11a.56.56,0,0,1,0,.12h-.06c-.07-.15-.15-.29-.21-.45s-.17-.51-.26-.76,0-.16.1-.19c.45-.13.47-.1.54.37A2.33,2.33,0,0,1,16.25,11Z"/></g></g></svg>