<svg xmlns="http://www.w3.org/2000/svg" viewBox="0 0 29.02 29.02"><defs><style>.cls-1{fill:#e3d800;}.cls-2{fill:#573e89;}</style></defs><title>feria</title><g id="Capa_2" data-name="Capa 2"><g id="Layer_1" data-name="Layer 1"><circle class="cls-1" cx="14.51" cy="14.51" r="13.21"/><path class="cls-2" d="M14.51,29A14.51,14.51,0,1,1,29,14.51,14.53,14.53,0,0,1,14.51,29Zm0-26.43A11.92,11.92,0,1,0,26.43,14.51,11.94,11.94,0,0,0,14.51,2.59Z"/><path class="cls-2" d="M21.66,11.81h0a.06.06,0,0,1-.06-.06,4.67,4.67,0,0,1,.15-.91s0-.07,0-.07a.58.58,0,0,0-.53.18.34.34,0,0,0,.08.57l.07,0a.06.06,0,0,1,0,.07l0,0a.06.06,0,0,1-.07,0,.52.52,0,0,1-.23-.84.71.71,0,0,1,.61-.25h.08a.06.06,0,0,0,.06,0c0-.32-.18-.6-.6-.77a.05.05,0,0,0-.08.05V10a.05.05,0,0,1-.08.05L20.7,10a.08.08,0,0,1,0-.1l.1-.1a.06.06,0,0,0,0-.09l0,0a1.26,1.26,0,0,1-.79-.86.79.79,0,0,1,.56-1,.84.84,0,0,1,1.06.57,1,1,0,0,1-.08.69c-.09.17-.2.33-.3.5a.05.05,0,0,0,0,.08l.25.13a.84.84,0,0,1,.46.83.1.1,0,0,0,0,.08.67.67,0,0,0,.77-.12.49.49,0,0,0,.1-.15c.08-.19.06-.24-.13-.32a1.54,1.54,0,0,1-.7-.51.8.8,0,0,1,0-.93A.79.79,0,0,1,23.42,9a1.28,1.28,0,0,1-.31,1h0s0,.07,0,.09l.19.07a.05.05,0,0,1,0,.08l-.12.18a.06.06,0,0,1-.1,0l0-.05a.06.06,0,0,0-.11,0,.66.66,0,0,1-.38.45,1,1,0,0,1-.66,0,.06.06,0,0,0-.08,0c0,.14-.06.28-.08.42s-.05.3-.07.45A.06.06,0,0,1,21.66,11.81Z"/><path class="cls-2" d="M6.67,11.58h0a.06.06,0,0,1-.06-.06,6,6,0,0,1,.14-.85.05.05,0,0,0,0-.06.5.5,0,0,0-.49.16.33.33,0,0,0,.08.54l.06,0a.06.06,0,0,1,0,.07v0a0,0,0,0,1-.06,0,.48.48,0,0,1-.22-.78.73.73,0,0,1,.57-.24h.07a.06.06,0,0,0,.06-.05c0-.3-.17-.56-.56-.72,0,0-.07,0-.07.05v.18A.05.05,0,0,1,6,10l-.27-.13a.05.05,0,0,1,0-.08l.1-.1a.05.05,0,0,0,0-.08l0,0a1.16,1.16,0,0,1-.74-.8.74.74,0,0,1,.52-.94.78.78,0,0,1,1,.54A.94.94,0,0,1,6.5,9c-.08.16-.19.31-.28.46a.05.05,0,0,0,0,.08l.23.13a.79.79,0,0,1,.43.77.13.13,0,0,0,0,.08.58.58,0,0,0,.82-.26c.08-.18.06-.22-.12-.3A1.41,1.41,0,0,1,7,9.49a.79.79,0,0,1,0-.88.81.81,0,0,1,.84-.31.79.79,0,0,1,.53.64,1.22,1.22,0,0,1-.29,1H8S8,10,8,10l.18.06a.05.05,0,0,1,0,.08l-.12.16a.06.06,0,0,1-.09,0l0,0a.05.05,0,0,0-.1,0,.65.65,0,0,1-.36.42.88.88,0,0,1-.62,0,0,0,0,0,0-.06,0c0,.13-.06.26-.08.39s0,.28-.07.42A0,0,0,0,1,6.67,11.58Z"/><path class="cls-2" d="M21.47,11.08c-.84.41-1.48,1.12-2.57,1.1-4-.06-7.95,0-11.92,0a.48.48,0,0,1-.31-.09l1-.34A19,19,0,0,0,14,8.1c.51-.45.5-.44,1.07,0A18.24,18.24,0,0,0,21,10.86l.45.12S21.43,11,21.47,11.08Z"/><path class="cls-2" d="M11.64,14.5a3.73,3.73,0,0,0-.46-.78c-.11-.12-.38-.1-.58-.11s-.19.11-.22.19c-.16.48-.41.7-.81.7s-.66-.21-.85-.71c0-.09-.2-.15-.32-.18s-.3,0-.36.23a.81.81,0,0,1-.92.66.77.77,0,0,1-.7-.66c0-.48,0-1,0-1.49h13.4c0,.51,0,1,0,1.49a.78.78,0,0,1-.77.67.79.79,0,0,1-.84-.62c0-.24-.14-.28-.35-.29s-.33.05-.38.29a.79.79,0,0,1-.78.62.81.81,0,0,1-.82-.62c-.06-.24-.18-.29-.4-.29s-.26.1-.3.28a.82.82,0,0,1-1.59,0c-.06-.27-.19-.31-.42-.31s-.28.11-.32.31a.79.79,0,0,1-.83.59h-.36Z"/><path class="cls-2" d="M21.68,17.56c-.44,0-.45,0-.45-.38v-4.6l-1.32.85c0-.38,0-.69,0-1a.24.24,0,0,1,.09-.17c.54-.38,1.1-.75,1.68-1.15Z"/><path class="cls-2" d="M19.81,14.27v6.25c0,.16,0,.35-.23.34s-.21-.19-.21-.34c0-1.9,0-3.8,0-5.7C19.36,14.51,19.56,14.43,19.81,14.27Z"/><path class="cls-2" d="M6.46,14.46a.55.55,0,0,1,.45.63c0,1.8,0,3.6,0,5.4,0,.12,0,.29-.11.35s-.36,0-.36-.26c0-.5,0-1,0-1.51V14.75C6.44,14.66,6.45,14.57,6.46,14.46Z"/><path class="cls-2" d="M11.63,14.49a1.66,1.66,0,0,1,.09.37c0,.79,0,.62,0,1.41,0,.25,0,.36-.12.38a.31.31,0,0,1-.35-.31v-2l.38.19Z"/><rect class="cls-2" x="7.23" y="17.72" width="11.47" height="2.91"/><rect class="cls-2" x="9.07" y="16.75" width="7.65" height="1.94"/></g></g></svg>