<svg xmlns="http://www.w3.org/2000/svg" viewBox="0 0 29.47 29.47"><defs><style>.cls-1{fill:#e3d800;}.cls-2{fill:#573e89;}</style></defs><title>mapeo</title><g id="Capa_2" data-name="Capa 2"><g id="Layer_1" data-name="Layer 1"><circle class="cls-1" cx="14.74" cy="14.74" r="13.46"/><path class="cls-2" d="M14.74,29.47A14.74,14.74,0,1,1,29.47,14.74,14.75,14.75,0,0,1,14.74,29.47Zm0-26.92A12.19,12.19,0,1,0,26.92,14.74,12.21,12.21,0,0,0,14.74,2.55Z"/><path class="cls-2" d="M6.84,21.7a1,1,0,0,0,0-.15c0-2.1,0-4.21,0-6.31a.3.3,0,0,0-.1-.21,2.54,2.54,0,0,1-.9-2c0-.11,0-.23,0-.34a2.28,2.28,0,0,1,.3-1.35C6.74,10.18,7.3,9,7.87,7.89A.63.63,0,0,1,8.5,7.5H20.4a.65.65,0,0,1,.65.4c.64,1.3,1.29,2.59,1.93,3.89a.49.49,0,0,1,.08.22A13.3,13.3,0,0,1,23,13.56,2.25,2.25,0,0,1,22.15,15a.35.35,0,0,0-.1.21v6.31a.92.92,0,0,0,0,.15h.45a.52.52,0,0,1,.55.5.5.5,0,0,1-.54.51H6.37a.51.51,0,0,1-.48-.32A.46.46,0,0,1,6,21.89a.5.5,0,0,1,.38-.19Zm1,0H16v-6c0-.11,0-.15-.13-.18a2.29,2.29,0,0,1-1-.52c-.14-.12-.26-.25-.4-.38a2.56,2.56,0,0,1-4,0,2.61,2.61,0,0,1-1.13.85,2.81,2.81,0,0,1-1.38.12Zm9.1,0h3.85c.15,0,.2,0,.2-.2,0-1.78,0-3.56,0-5.34v-.6a2.56,2.56,0,0,1-1.4-.12,2.67,2.67,0,0,1-1.13-.84,2.46,2.46,0,0,1-1.34.91c-.13,0-.18.08-.18.22,0,1.77,0,3.53,0,5.3ZM15,8.52s0,.06,0,.08v2.83c0,.13.07.13.16.13h2.71s0-.05,0-.06c-.23-1-.47-1.9-.7-2.85,0-.1-.08-.13-.17-.12H15Zm-3.9,3,.08,0h2.67c.12,0,.12-.06.12-.15,0-.92,0-1.83,0-2.75,0-.11,0-.15-.15-.14H12c-.11,0-.15.05-.17.15-.14.55-.28,1.09-.41,1.64Zm-.31-3-.07,0H8.79a.23.23,0,0,0-.15.11L7.26,11.4a1.16,1.16,0,0,0-.06.15H9.88c.13,0,.15-.08.17-.18l.39-1.55C10.54,9.41,10.65,9,10.76,8.54Zm7.4,0a.72.72,0,0,1,0,.13c.23.92.47,1.84.69,2.76,0,.13.09.15.21.15H21.7a.29.29,0,0,0,0-.1L20.25,8.61a.23.23,0,0,0-.14-.09H18.16Zm-5.74,4.05H11.06c-.06,0-.14,0-.15.1a1.93,1.93,0,0,0,.37,1.39,1.52,1.52,0,0,0,2.44-.19A2.09,2.09,0,0,0,14,12.74c0-.13,0-.17-.17-.17Zm-2.53,0H7s-.13.06-.12.09a3.74,3.74,0,0,0,.11.95,1.37,1.37,0,0,0,1.12,1,1.46,1.46,0,0,0,1.41-.49A1.88,1.88,0,0,0,9.89,12.59Zm5.06,0c0,.25,0,.49,0,.73a1.51,1.51,0,0,0,2.39,1,1.74,1.74,0,0,0,.61-1.7Zm5.58,0H19.17c-.08,0-.16,0-.16.1a2.08,2.08,0,0,0,.21,1.15,1.51,1.51,0,0,0,2.61,0,2,2,0,0,0,.22-1.13c0-.12-.05-.15-.16-.15Z"/><path class="cls-2" d="M18,18.16a.51.51,0,1,1,1,0,.52.52,0,0,1-.5.51A.52.52,0,0,1,18,18.16Z"/><polygon class="cls-2" points="12.39 17.87 8.43 17.87 8.43 15.11 8.88 15.11 8.88 17.42 11.94 17.42 11.94 15.31 12.39 15.31 12.39 17.87"/></g></g></svg>